<svg xmlns="http://www.w3.org/2000/svg" id="Capa_1" version="1.1" viewBox="74.02075421533962 187.14149824442927 96.53998305203143 95.71700351114146">
    <defs>
        <style>.st1{fill:#59cbe8}</style>
    </defs>
    <path d="M74.02075,234.99997c0,-26.43147 21.42698,-47.85848 47.85845,-47.85848c11.14659,0 21.40324,3.81083 29.53819,10.20058c-6.19515,-3.44953 -13.32993,-5.41474 -20.92368,-5.41474c-23.78831,0 -43.07251,19.28438 -43.07251,43.07264c0,23.78833 19.2842,43.07269 43.07251,43.07269c7.59375,0 14.72853,-1.96521 20.92368,-5.41474c-8.13495,6.38976 -18.3916,10.20058 -29.53819,10.20058c-26.43147,0 -47.85845,-21.42703 -47.85845,-47.85852zM170.56074,234.99997c0,21.14517 -17.14151,38.28685 -38.2867,38.28685c-8.91737,0 -17.12267,-3.04866 -23.63058,-8.16047c4.95604,2.75957 10.66387,4.3317 16.73899,4.3317c19.03047,0 34.45793,-15.42741 34.45793,-34.45808c0,-19.03057 -15.42746,-34.45803 -34.45793,-34.45803c-6.07512,0 -11.78295,1.57202 -16.73899,4.3316c6.50791,-5.11175 14.71321,-8.16037 23.63058,-8.16037c21.14519,0 38.2867,17.14176 38.2867,38.2868zM105.86587,245.46807h13.69469v-3.79598h-13.69469c-0.48666,0 -0.86383,-0.13383 -1.13149,-0.40149c-0.26766,-0.26766 -0.40149,-0.64482 -0.40149,-1.13149v-10.24912c0,-0.51587 0.1314,-0.9052 0.39419,-1.16799c0.26279,-0.26281 0.64239,-0.39422 1.13879,-0.39422h13.69469v-3.79595h-13.69469c-0.65213,0 -1.23613,0.08273 -1.752,0.2482c-0.51585,0.16547 -0.97088,0.3869 -1.36509,0.66429c-0.39419,0.27739 -0.73242,0.59616 -1.01468,0.95629c-0.28228,0.36012 -0.51101,0.73728 -0.6862,1.13149c-0.1752,0.39419 -0.30416,0.79325 -0.3869,1.19719c-0.08273,0.40393 -0.1241,0.78108 -0.1241,1.13149v10.27833c0,0.65213 0.08273,1.23856 0.2482,1.75927c0.16547,0.52073 0.3869,0.9782 0.6643,1.3724c0.27739,0.3942 0.59616,0.73 0.95629,1.00739c0.36012,0.2774 0.73728,0.5037 1.13149,0.6789c0.39419,0.1752 0.79325,0.30416 1.19719,0.3869c0.40393,0.08273 0.78108,0.1241 1.13149,0.1241zM143.80371,242.37288c0.16063,-0.53532 0.24095,-1.03658 0.24095,-1.50378v-0.73c0,-0.73972 -0.08272,-1.41618 -0.24818,-2.02938c-0.16545,-0.61321 -0.38937,-1.16314 -0.67177,-1.64979c-0.28223,-0.48666 -0.61072,-0.91493 -0.98547,-1.2848c-0.37476,-0.36987 -0.77625,-0.6862 -1.20449,-0.949c0.49652,-0.69105 0.85665,-1.42347 1.08041,-2.19727c0.22392,-0.77381 0.33589,-1.49651 0.33589,-2.16809v-0.7154c0,-0.8468 -0.15332,-1.5622 -0.45997,-2.14619c-0.30665,-0.58399 -0.69112,-1.05849 -1.15341,-1.42349c-0.46229,-0.36499 -0.96114,-0.63022 -1.49653,-0.79568c-0.53522,-0.16547 -1.03647,-0.2482 -1.50375,-0.2482h-12.70177c-0.27259,0 -0.52567,0.04866 -0.75923,0.14599c-0.23356,0.09733 -0.43555,0.23359 -0.60598,0.40879c-0.1703,0.1752 -0.30412,0.3796 -0.40147,0.61321c-0.09733,0.23359 -0.14599,0.48178 -0.14599,0.74457v17.11109c0,0.27253 0.04866,0.5256 0.14599,0.75919c0.09734,0.2336 0.23117,0.43556 0.40147,0.60589c0.17043,0.17033 0.37243,0.30416 0.60598,0.4015c0.23356,0.09733 0.48663,0.146 0.75923,0.146h14.41009c0.84668,0 1.56206,-0.1533 2.14611,-0.4599c0.58406,-0.3066 1.05856,-0.68863 1.42352,-1.14609c0.36495,-0.45747 0.62775,-0.95386 0.78838,-1.48919zM140.01505,238.80323c0.15565,0.39419 0.23347,0.83949 0.23347,1.33588v0.7008c0,0.20439 -0.02916,0.36499 -0.08746,0.4818c-0.05847,0.11679 -0.12658,0.19953 -0.20432,0.2482c-0.07791,0.04865 -0.16553,0.07785 -0.26288,0.08759c-0.09734,0.00973 -0.18007,0.0146 -0.24818,0.0146h-12.52685v-13.3443h10.81853c0.52559,0 0.78838,0.27254 0.78838,0.81761v0.7154c0,0.4964 -0.07542,0.94169 -0.22625,1.33588c-0.15083,0.39421 -0.36736,0.73244 -0.64959,1.0147c-0.28239,0.28226 -0.62309,0.49882 -1.0221,0.64969c-0.39901,0.15086 -0.84668,0.2263 -1.34303,0.2263h-6.84748v3.82518h8.55555c0.49635,0 0.94411,0.07543 1.34328,0.2263c0.39901,0.15086 0.73962,0.36743 1.02185,0.64969c0.28223,0.28226 0.50125,0.6205 0.65706,1.0147z" class="st1"/>
    <path d="M114 108a62 62 0 0 1-106 0c-6-13 1-19 7-23 7-4 14-3 18 1 18 14 32 16 50 3 6-5 14-11 23-8 9 4 12 17 8 27Z" style="fill:#7a5dff"/>
</svg>